<?xml version="1.0" encoding="iso-8859-1"?>
<!-- Generator: Adobe Illustrator 18.0.0, SVG Export Plug-In . SVG Version: 6.00 Build 0)  -->
<!DOCTYPE svg PUBLIC "-//W3C//DTD SVG 1.1//EN" "http://www.w3.org/Graphics/SVG/1.1/DTD/svg11.dtd">
<svg version="1.1" id="_x34_" xmlns="http://www.w3.org/2000/svg" xmlns:xlink="http://www.w3.org/1999/xlink" x="0px" y="0px"
	 viewBox="0 0 512 512" style="enable-background:new 0 0 512 512;" xml:space="preserve">
<g>
	<g>
		<path style="fill:#DEC955;" d="M475.138,288.047c0,1.805,0,3.611-0.075,5.416c-0.225,8.125-0.827,16.099-1.881,24.073H38.817
			c-1.053-7.974-1.655-15.948-1.881-24.073c-0.075-1.805-0.075-3.611-0.075-5.416c0-3.611,0.075-7.147,0.226-10.683
			c4.288-89.747,62.589-165.426,143.158-195.065c10.307-3.837,20.989-6.846,31.972-9.028c14.143-2.933,28.812-4.438,43.783-4.438
			c14.971,0,29.64,1.505,43.783,4.438c10.983,2.182,21.666,5.191,31.972,9.028c14.895,5.417,28.963,12.488,42.128,20.913
			c26.856,17.152,49.65,39.946,66.802,66.802c20.01,31.295,32.348,68.006,34.228,107.35
			C475.063,280.901,475.138,284.436,475.138,288.047z"/>
		<path style="opacity:0.07;fill:#171716;" d="M475.138,298.579c0,6.395-0.301,12.714-0.827,18.958
			c-0.225,3.009-0.527,5.943-0.903,8.801c-0.075,0.602-0.151,1.129-0.226,1.73H38.817c-0.075-0.602-0.15-1.128-0.225-1.73
			c-0.376-2.859-0.677-5.793-0.903-8.801c-0.527-6.244-0.828-12.563-0.828-18.958c0-1.73,0-3.385,0.075-5.115
			c0-1.805,0.075-3.686,0.151-5.491h437.826c0.075,1.805,0.15,3.686,0.15,5.491C475.138,295.194,475.138,296.849,475.138,298.579z"
			/>
		<g>
			<path style="fill:#DEC955;" d="M332.732,62.063c-3.159-32.499-29.113-58.527-61.687-61.687C268.864,0.151,266.532,0,264.275,0
				h-16.55c-37.99,0-68.834,30.919-68.834,68.834c0,4.589,0.451,9.102,1.354,13.466c6.244,31.52,34.078,55.368,67.48,55.368h16.55
				c33.401,0,61.236-23.847,67.479-55.368c0.903-4.363,1.354-8.877,1.354-13.466C333.108,66.577,332.958,64.245,332.732,62.063z
				 M264.275,104.642h-16.55c-18.28,0-33.326-13.691-35.508-31.37c-0.225-1.504-0.301-2.933-0.301-4.438
				c0-19.71,16.023-35.733,35.809-35.733h16.55c19.785,0,35.809,16.024,35.809,35.733c0,1.505-0.075,2.934-0.301,4.438
				C297.601,90.951,282.555,104.642,264.275,104.642z"/>
		</g>
		
			<ellipse transform="matrix(0.6477 0.7619 -0.7619 0.6477 174.7245 -61.6449)" style="opacity:0.3;fill:#FFFFFF;" cx="154.017" cy="158.103" rx="35.1" ry="53.683"/>
		<path style="fill:#E1D169;" d="M512,343.114v4.89c0,14.143-11.51,25.653-25.578,25.653H25.577c-2.407,0-4.814-0.376-7.072-0.978
			c-8.35-2.483-14.97-9.027-17.452-17.453C0.376,352.969,0,350.486,0,348.004v-4.89c0-2.332,0.301-4.589,0.903-6.77
			c3.009-10.833,12.939-18.807,24.675-18.807h460.845c11.735,0,21.666,7.974,24.675,18.807C511.699,338.525,512,340.781,512,343.114
			z"/>
		<path style="opacity:0.1;fill:#FFFFFF;" d="M512,332.733v8.801c0-1.805-0.301-3.611-0.903-5.191
			c-2.107-5.793-7.749-10.005-14.293-10.005H15.196c-6.545,0-12.187,4.213-14.293,10.005C0.301,337.923,0,339.729,0,341.534v-8.801
			c0-8.351,6.846-15.196,15.196-15.196h481.608C505.154,317.536,512,324.382,512,332.733z"/>
	</g>
	<path style="fill:none;" d="M264.275,33.1h-16.55c-19.785,0-35.808,16.024-35.808,35.733c0,1.505,0.075,2.934,0.301,4.438
		c14.143-2.933,28.812-4.438,43.783-4.438c14.971,0,29.64,1.505,43.783,4.438c0.226-1.504,0.301-2.933,0.301-4.438
		C300.084,49.124,284.06,33.1,264.275,33.1z"/>
	<path style="opacity:0.1;fill:#FFFFFF;" d="M512,332.733c0-8.351-6.846-15.196-15.196-15.196h-10.381h-12.112
		c0.527-6.244,0.827-12.563,0.827-18.958c0-1.73,0-3.385-0.075-5.115c0.075-1.805,0.075-3.611,0.075-5.416
		c0-3.611-0.075-7.147-0.225-10.683c-1.881-39.344-14.218-76.055-34.228-107.35c-17.152-26.856-39.946-49.65-66.802-66.802
		c-7.059-4.518-14.397-8.61-21.964-12.303L69.172,373.656h417.25c14.068,0,25.578-11.51,25.578-25.653v-4.89
		c0-2.332-0.301-4.589-0.903-6.77c0.602,1.58,0.903,3.385,0.903,5.191V332.733z"/>
	<path style="opacity:0.05;fill:#040000;" d="M512,332.733c0-8.351-6.846-15.196-15.196-15.196h-10.381h-12.112
		c0.527-6.244,0.827-12.563,0.827-18.958c0-1.73,0-3.385-0.075-5.115c0.075-1.805,0.075-3.611,0.075-5.416
		c0-3.611-0.075-7.147-0.225-10.683c-1.881-39.344-14.218-76.055-34.228-107.35c-17.152-26.856-39.946-49.65-66.802-66.802
		c-7.059-4.518-14.397-8.61-21.964-12.303L69.172,373.656h417.25c14.068,0,25.578-11.51,25.578-25.653v-4.89
		c0-2.332-0.301-4.589-0.903-6.77c0.602,1.58,0.903,3.385,0.903,5.191V332.733z"/>
</g>
</svg>
